<svg width="24" height="23" viewBox="0 0 24 23" fill="none" xmlns="http://www.w3.org/2000/svg">
<path fill-rule="evenodd" clip-rule="evenodd" d="M7.05273 0.0672055C8.33236 0.0122192 8.74036 0 12 0C15.2596 0 15.6676 0.0132374 16.9462 0.0672055C18.2247 0.121174 19.0975 0.31159 19.8611 0.58754C20.6607 0.869599 21.3862 1.31051 21.9862 1.88074C22.5971 2.43977 23.0684 3.11589 23.3695 3.8633C23.6662 4.57609 23.8691 5.3907 23.928 6.58207C23.9869 7.77854 24 8.15937 24 11.2009C24 14.2435 23.9858 14.6243 23.928 15.8188C23.8702 17.0101 23.6662 17.8247 23.3695 18.5375C23.0684 19.285 22.5963 19.9623 21.9862 20.5221C21.3862 21.0924 20.6607 21.5323 19.8611 21.8133C19.0975 22.0903 18.2247 22.2797 16.9484 22.3347C15.6676 22.3896 15.2596 22.4019 12 22.4019C8.74036 22.4019 8.33236 22.3886 7.05273 22.3347C5.77636 22.2807 4.90364 22.0903 4.14 21.8133C3.33919 21.5322 2.61362 21.0916 2.01382 20.5221C1.40332 19.9628 0.930889 19.2858 0.629455 18.5386C0.333818 17.8258 0.130909 17.0112 0.072 15.8198C0.0130909 14.6233 0 14.2425 0 11.2009C0 8.15835 0.0141818 7.77752 0.072 6.58411C0.129818 5.3907 0.333818 4.57609 0.629455 3.8633C0.931334 3.11598 1.40413 2.43907 2.01491 1.87972C2.61386 1.31 3.3387 0.869033 4.13891 0.58754C4.90255 0.31159 5.77527 0.122192 7.05164 0.0672055H7.05273ZM16.8491 2.08337C15.5836 2.0294 15.204 2.0182 12 2.0182C8.796 2.0182 8.41636 2.0294 7.15091 2.08337C5.98036 2.13327 5.34545 2.31554 4.92218 2.4693C4.36255 2.67295 3.96218 2.91428 3.54218 3.30631C3.14405 3.66785 2.83765 4.10797 2.64545 4.59442C2.48073 4.9895 2.28545 5.58213 2.232 6.67473C2.17418 7.85592 2.16218 8.21028 2.16218 11.2009C2.16218 14.1916 2.17418 14.5459 2.232 15.7271C2.28545 16.8197 2.48073 17.4124 2.64545 17.8074C2.83745 18.2932 3.144 18.7341 3.54218 19.0955C3.92945 19.4672 4.40182 19.7533 4.92218 19.9326C5.34545 20.0863 5.98036 20.2686 7.15091 20.3185C8.41636 20.3725 8.79491 20.3837 12 20.3837C15.2051 20.3837 15.5836 20.3725 16.8491 20.3185C18.0196 20.2686 18.6545 20.0863 19.0778 19.9326C19.6375 19.7289 20.0378 19.4876 20.4578 19.0955C20.856 18.7341 21.1625 18.2932 21.3545 17.8074C21.5193 17.4124 21.7145 16.8197 21.768 15.7271C21.8258 14.5459 21.8378 14.1916 21.8378 11.2009C21.8378 8.21028 21.8258 7.85592 21.768 6.67473C21.7145 5.58213 21.5193 4.9895 21.3545 4.59442C21.1364 4.07205 20.8778 3.69834 20.4578 3.30631C20.0705 2.93472 19.5989 2.64873 19.0778 2.4693C18.6545 2.31554 18.0196 2.13327 16.8491 2.08337ZM10.4673 14.6539C11.3233 14.9865 12.2764 15.0314 13.1639 14.7809C14.0514 14.5304 14.8182 14.0001 15.3334 13.2805C15.8485 12.5609 16.0801 11.6967 15.9884 10.8355C15.8968 9.97426 15.4876 9.16946 14.8309 8.55853C14.4123 8.168 13.906 7.86897 13.3487 7.68297C12.7914 7.49697 12.1968 7.42862 11.6078 7.48285C11.0188 7.53708 10.45 7.71253 9.94233 7.99658C9.43468 8.28063 9.00081 8.6662 8.67197 9.12555C8.34312 9.5849 8.12748 10.1066 8.04056 10.6531C7.95365 11.1995 7.99762 11.7572 8.16932 12.2859C8.34101 12.8146 8.63616 13.3012 9.03351 13.7107C9.43087 14.1201 9.92054 14.4423 10.4673 14.6539ZM7.63855 7.1299C8.2113 6.59528 8.89126 6.17121 9.6396 5.88187C10.3879 5.59254 11.19 5.44362 12 5.44362C12.81 5.44362 13.6121 5.59254 14.3604 5.88187C15.1087 6.1712 15.7887 6.59528 16.3615 7.1299C16.9342 7.66451 17.3885 8.2992 17.6985 8.9977C18.0085 9.69621 18.168 10.4449 18.168 11.2009C18.168 11.957 18.0085 12.7056 17.6985 13.4042C17.3885 14.1027 16.9342 14.7373 16.3615 15.272C15.2047 16.3517 13.6359 16.9582 12 16.9582C10.3641 16.9582 8.79527 16.3517 7.63855 15.272C6.48182 14.1923 5.83197 12.7279 5.83197 11.2009C5.83197 9.674 6.48182 8.2096 7.63855 7.1299ZM19.536 6.30103C19.6779 6.17606 19.7916 6.02577 19.8701 5.85908C19.9487 5.69238 19.9907 5.51266 19.9935 5.33055C19.9964 5.14845 19.9601 4.96766 19.8867 4.79889C19.8134 4.63013 19.7045 4.47682 19.5665 4.34804C19.4285 4.21925 19.2643 4.11762 19.0835 4.04915C18.9027 3.98069 18.709 3.94678 18.5139 3.94943C18.3188 3.95208 18.1263 3.99125 17.9477 4.06461C17.7691 4.13797 17.6081 4.24403 17.4742 4.37651C17.2138 4.63416 17.0712 4.97639 17.0768 5.33055C17.0823 5.68471 17.2355 6.02292 17.5038 6.27338C17.7721 6.52383 18.1345 6.66682 18.5139 6.67198C18.8933 6.67715 19.26 6.54408 19.536 6.30103Z" fill="black"/>
</svg>
