<svg width="26" height="16" viewBox="0 0 26 16" fill="none" xmlns="http://www.w3.org/2000/svg">
<path d="M25.2965 0.926636L13.9721 10.5933C13.6806 10.8416 13.2864 10.981 12.8754 10.981C12.4645 10.981 12.0702 10.8416 11.7788 10.5933L0.555421 0.999969C0.520918 1.10866 0.502624 1.22067 0.500977 1.3333V14.6666C0.500977 15.0203 0.664865 15.3594 0.956588 15.6094C1.24831 15.8595 1.64397 16 2.05653 16H23.8343C24.2469 16 24.6425 15.8595 24.9343 15.6094C25.226 15.3594 25.3899 15.0203 25.3899 14.6666V1.3333C25.3837 1.19441 25.3522 1.05719 25.2965 0.926636ZM3.12209 14.6666H2.04098V13.7133L7.69542 8.90664L8.79209 9.84663L3.12209 14.6666ZM23.8188 14.6666H22.7299L17.0599 9.84663L18.1565 8.90664L23.811 13.7133L23.8188 14.6666Z" fill="black"/>
</svg>
