<svg width="29" height="35" viewBox="0 0 29 35" fill="none" xmlns="http://www.w3.org/2000/svg">
<path d="M21.4605 0.0175153C21.3861 -0.0656097 18.7064 0.0503279 16.3745 2.58127C14.0427 5.11002 14.4014 8.01064 14.4539 8.08502C14.5064 8.15939 17.7789 8.27533 19.868 5.33314C21.957 2.39095 21.5348 0.102828 21.4605 0.0175153ZM28.7098 25.6835C28.6048 25.4735 23.6239 22.9841 24.0877 18.1978C24.5514 13.4094 27.7517 12.0969 27.802 11.9547C27.8523 11.8125 26.4961 10.2266 25.0589 9.42377C24.0037 8.85776 22.8358 8.53347 21.6398 8.47439C21.4036 8.46783 20.5833 8.26658 18.8967 8.72814C17.7855 9.0322 15.2808 10.0166 14.5917 10.056C13.9005 10.0953 11.8442 8.91408 9.63265 8.60126C8.21734 8.32783 6.71671 8.88783 5.64265 9.31877C4.57078 9.74752 2.53203 10.9681 1.10578 14.2122C-0.320475 17.4541 0.425463 22.5903 0.959213 24.1872C1.49296 25.7819 2.3264 28.396 3.7439 30.3035C5.0039 32.456 6.67515 33.95 7.37296 34.4575C8.07078 34.965 10.0395 35.3019 11.4045 34.6041C12.5027 33.9303 14.4845 33.5431 15.2676 33.5716C16.0486 33.6 17.5886 33.9085 19.1658 34.7506C20.4148 35.1816 21.5961 35.0022 22.7795 34.521C23.963 34.0375 25.6758 32.2044 27.6751 28.4878C28.4342 26.7597 28.7798 25.8256 28.7098 25.6835Z" fill="black"/>
</svg>
