<svg width="61" height="39" viewBox="0 0 61 39" fill="none" xmlns="http://www.w3.org/2000/svg">
<path d="M58.386 14.1495L46.9257 12.5196L39.9416 1.98798C39.575 1.43674 39.0605 0.982165 38.4478 0.668246C37.8351 0.354327 37.145 0.19169 36.4443 0.19607L7.17427 0.411344C6.32973 0.417928 5.50838 0.667179 4.82436 1.12446C4.14033 1.58175 3.62761 2.22435 3.35742 2.96298L0.03125 12.0674V33H7.01443C7.5573 34.6289 8.6516 36.0542 10.1367 37.0668C11.6218 38.0793 13.4194 38.6257 15.2656 38.6257C17.1119 38.6257 18.9095 38.0793 20.3946 37.0668C21.8796 36.0542 22.9739 34.6289 23.5168 33H36.4676C37.0104 34.6289 38.1047 36.0542 39.5898 37.0668C41.0749 38.0793 42.8725 38.6257 44.7187 38.6257C46.565 38.6257 48.3626 38.0793 49.8477 37.0668C51.3328 36.0542 52.4271 34.6289 52.9699 33H60.9687V16.9292C60.9721 16.2566 60.7128 15.6055 60.2385 15.095C59.7642 14.5846 59.1066 14.2489 58.386 14.1495ZM26.4375 4.01955L36.4767 3.94572L42.0753 12.3887L26.4375 12.3837V4.01955ZM7.20677 4.16111L22.375 4.04955V12.3824L4.2056 12.3764L7.20677 4.16111ZM15.2656 34.875C14.3617 34.875 13.4781 34.6276 12.7265 34.164C11.9749 33.7005 11.3891 33.0416 11.0432 32.2707C10.6973 31.4998 10.6068 30.6516 10.7831 29.8332C10.9595 29.0149 11.3948 28.2632 12.0339 27.6732C12.6731 27.0832 13.4874 26.6814 14.374 26.5186C15.2606 26.3558 16.1795 26.4393 17.0146 26.7586C17.8497 27.078 18.5635 27.6187 19.0657 28.3125C19.5679 29.0062 19.8359 29.8219 19.8359 30.6563C19.8346 31.7748 19.3526 32.8471 18.4958 33.638C17.639 34.4289 16.4773 34.8738 15.2656 34.875ZM44.7187 34.875C43.8148 34.875 42.9312 34.6276 42.1796 34.164C41.428 33.7005 40.8422 33.0416 40.4963 32.2707C40.1504 31.4998 40.0599 30.6516 40.2363 29.8332C40.4126 29.0149 40.8479 28.2632 41.487 27.6732C42.1262 27.0832 42.9406 26.6814 43.8271 26.5186C44.7137 26.3558 45.6326 26.4393 46.4677 26.7586C47.3028 27.078 48.0166 27.6187 48.5188 28.3125C49.021 29.0062 49.2891 29.8219 49.2891 30.6563C49.2877 31.7748 48.8058 32.8471 47.949 33.638C47.0922 34.4289 45.9305 34.8738 44.7187 34.875ZM56.9062 29.25H53.2142C52.8573 27.4099 51.8107 25.7442 50.2577 24.5445C48.7046 23.3447 46.7439 22.6873 44.7187 22.6873C42.6936 22.6873 40.7329 23.3447 39.1798 24.5445C37.6268 25.7442 36.5802 27.4099 36.2233 29.25H23.7611C23.4042 27.4099 22.3576 25.7442 20.8045 24.5445C19.2515 23.3447 17.2908 22.6873 15.2656 22.6873C13.2405 22.6873 11.2798 23.3447 9.7267 24.5445C8.17363 25.7442 7.12707 27.4099 6.77017 29.25H4.09375V16.1281L46.0551 16.1901L56.9062 17.7333V29.25Z" fill="#EEB319"/>
</svg>
