<svg width="65" height="52" viewBox="0 0 65 52" fill="none" xmlns="http://www.w3.org/2000/svg">
<path d="M41.9792 10.75C44.9583 10.75 47.3958 8.5 47.3958 5.75C47.3958 3 44.9583 0.75 41.9792 0.75C39 0.75 36.5625 3 36.5625 5.75C36.5625 8.5 39 10.75 41.9792 10.75ZM13.5417 27C5.95833 27 0 32.5 0 39.5C0 46.5 5.95833 52 13.5417 52C21.125 52 27.0833 46.5 27.0833 39.5C27.0833 32.5 21.125 27 13.5417 27ZM13.5417 48.25C8.39583 48.25 4.0625 44.25 4.0625 39.5C4.0625 34.75 8.39583 30.75 13.5417 30.75C18.6875 30.75 23.0208 34.75 23.0208 39.5C23.0208 44.25 18.6875 48.25 13.5417 48.25ZM29.25 23.25L35.75 17.25L37.9167 19.25C41.4375 22.5 46.0417 24.5 51.7292 24.5V19.5C47.6667 19.5 44.4167 18 41.9792 15.75L36.8333 11C35.4792 10 34.125 9.5 32.5 9.5C30.875 9.5 29.5208 10 28.7083 11L21.125 18C20.0417 19 19.5 20.25 19.5 21.5C19.5 23 20.0417 24.25 21.125 25L29.7917 32V44.5H35.2083V29L29.25 23.25ZM51.4583 27C43.875 27 37.9167 32.5 37.9167 39.5C37.9167 46.5 43.875 52 51.4583 52C59.0417 52 65 46.5 65 39.5C65 32.5 59.0417 27 51.4583 27ZM51.4583 48.25C46.3125 48.25 41.9792 44.25 41.9792 39.5C41.9792 34.75 46.3125 30.75 51.4583 30.75C56.6042 30.75 60.9375 34.75 60.9375 39.5C60.9375 44.25 56.6042 48.25 51.4583 48.25Z" fill="#EEB319"/>
</svg>
