<svg width="36" height="55" viewBox="0 0 36 55" fill="none" xmlns="http://www.w3.org/2000/svg">
<path d="M20.5625 10.75C23.5417 10.75 25.9792 8.5 25.9792 5.75C25.9792 3 23.5417 0.75 20.5625 0.75C17.5833 0.75 15.1458 3 15.1458 5.75C15.1458 8.5 17.5833 10.75 20.5625 10.75ZM10.5417 19.25L2.95833 54.5H8.64583L13.5208 34.5L19.2083 39.5V54.5H24.625V35.75L18.9375 30.75L20.5625 23.25C24.0833 27 29.5 29.5 35.4583 29.5V24.5C30.3125 24.5 25.9792 22 23.8125 18.5L21.1042 14.5C20.3727 13.4204 19.249 12.6163 17.934 12.2315C16.6191 11.8468 15.1987 11.9065 13.9271 12.4L0.25 17.75V29.5H5.66667V21L10.5417 19.25Z" fill="#EEB319"/>
</svg>
