<svg width="59" height="41" viewBox="0 0 59 41" fill="none" xmlns="http://www.w3.org/2000/svg">
<path d="M51.1669 10H43.9447V1.66667C43.9447 1.22464 43.7544 0.800716 43.4158 0.488156C43.0772 0.175595 42.618 0 42.1391 0H2.41688C1.93802 0 1.47877 0.175595 1.14016 0.488156C0.801556 0.800716 0.611328 1.22464 0.611328 1.66667V31.6667C0.611328 32.1087 0.801556 32.5326 1.14016 32.8452C1.47877 33.1577 1.93802 33.3333 2.41688 33.3333H4.22244V3.33333H40.3335V25.8167C39.2277 26.1416 38.2113 26.6838 37.3542 27.4059C36.497 28.1281 35.8195 29.0131 35.3683 30H23.0544C22.433 28.6318 21.3859 27.4645 20.0457 26.6457C18.7055 25.8269 17.1324 25.3934 15.5252 25.4C13.9982 25.4311 12.5136 25.8697 11.2509 26.6628C9.98807 27.456 9.00112 28.5697 8.40924 29.8694C7.81736 31.1691 7.64588 32.5992 7.91553 33.987C8.18517 35.3747 8.88439 36.6607 9.92871 37.6895C10.973 38.7183 12.3178 39.446 13.8004 39.7846C15.2831 40.1232 16.8403 40.0582 18.2838 39.5975C19.7274 39.1368 20.9955 38.3001 21.935 37.1885C22.8745 36.0768 23.4451 34.7379 23.578 33.3333H34.9169C35.1276 35.1669 36.0659 36.8637 37.551 38.0969C39.0362 39.33 40.9631 40.0123 42.9606 40.0123C44.9582 40.0123 46.8851 39.33 48.3702 38.0969C49.8554 36.8637 50.7936 35.1669 51.0044 33.3333H58.3891V16.6667C58.3891 14.8986 57.6282 13.2029 56.2738 11.9526C54.9193 10.7024 53.0823 10 51.1669 10ZM15.5252 36.6667C14.9387 36.7018 14.3506 36.6255 13.7972 36.4425C13.2439 36.2595 12.7372 35.9736 12.3083 35.6026C11.8794 35.2316 11.5376 34.7833 11.3039 34.2855C11.0702 33.7877 10.9496 33.2509 10.9496 32.7083C10.9496 32.1658 11.0702 31.629 11.3039 31.1312C11.5376 30.6333 11.8794 30.1851 12.3083 29.814C12.7372 29.443 13.2439 29.1572 13.7972 28.9742C14.3506 28.7911 14.9387 28.7149 15.5252 28.75C16.1118 28.7149 16.6999 28.7911 17.2532 28.9742C17.8065 29.1572 18.3133 29.443 18.7421 29.814C19.171 30.1851 19.5129 30.6333 19.7466 31.1312C19.9803 31.629 20.1008 32.1658 20.1008 32.7083C20.1008 33.2509 19.9803 33.7877 19.7466 34.2855C19.5129 34.7833 19.171 35.2316 18.7421 35.6026C18.3133 35.9736 17.8065 36.2595 17.2532 36.4425C16.6999 36.6255 16.1118 36.7018 15.5252 36.6667ZM42.9155 36.6667C42.0753 36.6275 41.2661 36.3616 40.5882 35.9019C39.9102 35.4422 39.3933 34.8089 39.1016 34.0806C38.8099 33.3523 38.7562 32.5609 38.9471 31.8047C39.1381 31.0485 39.5653 30.3606 40.1758 29.8263C40.7862 29.2921 41.5532 28.935 42.3815 28.7994C43.2097 28.6637 44.0629 28.7555 44.8353 29.0632C45.6076 29.371 46.2651 29.8812 46.7262 30.5306C47.1874 31.1801 47.4319 31.9402 47.4294 32.7167C47.413 33.2508 47.2828 33.7767 47.0461 34.2643C46.8095 34.7519 46.4711 35.1917 46.0502 35.5586C45.6293 35.9254 45.1342 36.2121 44.5933 36.4022C44.0523 36.5924 43.476 36.6822 42.8974 36.6667H42.9155ZM54.778 18.3333H43.9447V13.3333H51.1669C52.1246 13.3333 53.0431 13.6845 53.7203 14.3096C54.3975 14.9348 54.778 15.7826 54.778 16.6667V18.3333Z" fill="#EEB319"/>
</svg>
